# xmcd
#
# Track frame offsets:
#	150
#	23875
#	41085
#	59837
#	84680
#	106217
#	132740
#	158257
#	179270
#	193780
#	212150
#	225425
#	245877
#	262832
#	281189
#	301462
#	315017
#
# Disc length: 4523 seconds
#
# Revision: 2
# Processed by: cddbd v1.5.1PL0 Copyright (c) Steve Scherf et al.
# Submitted via: audiograbber 1.82.02
#
DISCID=f011a911
DTITLE=Leon Redbone - Live and Kickin'
DYEAR=1900
DGENRE=
TTITLE0=Diddy Wa Diddie
TTITLE1=Please Don't Talk About Me When I'm Gone
TTITLE2=I'm Crazy 'Bout My Baby
TTITLE3=2:19 Blues (Mamie's Blues)
TTITLE4=Love My Whisky or I Love My Whisky
TTITLE5=Crazy Blues
TTITLE6=I Ain't Got Nobody
TTITLE7=In the Jailhouse Now
TTITLE8=Alabama Jubilee
TTITLE9=Polly Wolly Doodle
TTITLE10=Big Time Woman
TTITLE11=Champagne Charlie
TTITLE12=Desert Blues (Big Chief Buffalo Nickel)
TTITLE13=Someday Sweetheart
TTITLE14=If We Never Meet Again This Side of Heaven
TTITLE15=Shine on Harvest Moon
TTITLE16=Skeedle Loo Doo Blues
EXTD=
EXTT0=
EXTT1=
EXTT2=
EXTT3=
EXTT4=
EXTT5=
EXTT6=
EXTT7=
EXTT8=
EXTT9=
EXTT10=
EXTT11=
EXTT12=
EXTT13=
EXTT14=
EXTT15=
EXTT16=
PLAYORDER=
